#!OML:ASF X:\für Bonn\!DataBase\2005_08_12_Daniel\c3d\Daniel.ASF
:FULLY-SPECIFIED
:DEGREES
235
root 0.0361817 17.3381 0.225311 172.399 -4.8107 -180.578
lowerback 42.8374 -1.32551 10.1963
upperback 12.7664 -2.67103 -1.84492
thorax -6.01509 -3.02508 -5.90565
lowerneck 2.09761 -1.3892 -3.72347
upperneck 11.2231 -2.36992 -1.22873
head 3.26526 -1.60833 0.175234
rclavicle 7.55382e-015 9.93923e-016
rhumerus 160.61 -172.158 -265.618
rradius 14.1716
rwrist 19.4418
rhand -19.3676 15.1045
rfingers 7.12502
rthumb 6.95026 -14.7614
lclavicle 7.55382e-015 9.93923e-016
lhumerus -21.0594 15.7604 82.6003
lradius 27.1821
lwrist -19.8066
lhand -13.9716 -3.36382
lfingers 7.12502
lthumb 12.1565 26.263
rfemur -10.1186 1.08224 18.4746
rtibia 35.0943
rfoot -20.0493 -8.56998
rtoes -11.6346
lfemur -14.05 -8.63455 -19.1246
ltibia 42.1127
lfoot -20.4709 -3.00561
ltoes -9.78552
236
root 0.0556326 17.3617 0.175364 172.225 -4.7565 -180.574
lowerback 41.9729 -1.28631 9.89122
upperback 12.6157 -2.67136 -1.88569
thorax -5.95844 -2.97722 -5.82781
lowerneck 2.29015 -1.23498 -3.58507
upperneck 11.2815 -2.17945 -1.34502
head 3.24301 -1.5206 0.119144
rclavicle -2.78299e-015 -2.20651e-014
rhumerus 159.534 -173.392 -266.026
rradius 14.5417
rwrist 18.3645
rhand -19.5661 14.8925
rfingers 7.12502
rthumb 6.75872 -14.9796
lclavicle -2.78299e-015 -2.20651e-014
lhumerus -21.1028 16.0724 82.404
lradius 27.263
lwrist -19.7618
lhand -14.2427 -3.24181
lfingers 7.12502
lthumb 11.8951 26.4003
rfemur -9.29686 1.22555 18.6106
rtibia 34.3385
rfoot -19.9745 -8.71353
rtoes -11.5381
lfemur -13.2456 -8.92403 -19.1416
ltibia 41.451
lfoot -20.4648 -2.66127
ltoes -9.94016
237
root 0.0752543 17.3831 0.125693 172.07 -4.71352 -180.586
lowerback 41.1098 -1.26622 9.57751
upperback 12.4514 -2.69111 -1.93411
thorax -5.91207 -2.93766 -5.74471
lowerneck 2.47466 -1.05602 -3.44695
upperneck 11.4227 -1.961 -1.4679
head 3.25125 -1.42353 0.0603639
rclavicle 3.04141e-014 1.98785e-015
rhumerus 158.501 -174.555 -266.463
rradius 14.8789
rwrist 17.3826
rhand -19.7051 14.7431
rfingers 7.12502
rthumb 6.62451 -15.1333
lclavicle 3.04141e-014 1.98785e-015
lhumerus -21.1648 16.357 82.2294
lradius 27.4038
lwrist -19.6668
lhand -14.4766 -3.01848
lfingers 7.12502
lthumb 11.6695 26.6365
rfemur -8.5229 1.3782 18.725
rtibia 33.624
rfoot -19.9338 -8.83389
rtoes -11.3746
lfemur -12.4744 -9.21133 -19.1832
ltibia 40.8094
lfoot -20.4792 -2.30529
ltoes -10.1589
238
root 0.0950208 17.4038 0.075666 171.911 -4.65022 -180.583
lowerback 40.2844 -1.24959 9.28089
upperback 12.2788 -2.70419 -1.97865
thorax -5.87527 -2.89661 -5.66637
lowerneck 2.45036 -0.877464 -3.33856
upperneck 11.7415 -1.73746 -1.58261
head 3.3613 -1.33085 0.00564894
rclavicle 8.34896e-015 -1.53064e-014
rhumerus 157.496 -175.643 -266.901
rradius 15.2132
rwrist 16.4599
rhand -19.8623 14.7248
rfingers 7.12502
rthumb 6.47274 -15.1563
lclavicle 8.34896e-015 -1.53064e-014
lhumerus -21.1986 16.5514 82.1025
lradius 27.5724
lwrist -19.3907
lhand -14.7146 -2.8295
lfingers 7.12502
lthumb 11.44 26.8384
rfemur -7.76485 1.58338 18.8717
rtibia 32.9415
rfoot -19.8936 -9.00639
rtoes -11.2712
lfemur -11.717 -9.43736 -19.2035
ltibia 40.1965
lfoot -20.4861 -1.99122
ltoes -10.376
239
root 0.115171 17.4223 0.026106 171.751 -4.60777 -180.597
lowerback 39.4845 -1.24299 8.98603
upperback 12.0936 -2.72205 -2.031
thorax -5.85343 -2.85765 -5.5934
lowerneck 2.33091 -0.701966 -3.22187
upperneck 12.1477 -1.51762 -1.67599
head 3.52127 -1.24212 -0.0452615
rclavicle -5.46658e-016 -2.3059e-014
rhumerus 156.474 -176.644 -267.35
rradius 15.592
rwrist 15.5886
rhand -19.9579 14.7601
rfingers 7.12502
rthumb 6.38048 -15.1238
lclavicle -5.46658e-016 -2.3059e-014
lhumerus -21.2079 16.6909 81.9902
lradius 27.7131
lwrist -19.0509
lhand -14.9004 -2.7443
lfingers 7.12502
lthumb 11.2609 26.9334
rfemur -7.02696 1.73896 18.9949
rtibia 32.2896
rfoot -19.8659 -9.15387
rtoes -11.1939
lfemur -10.9752 -9.69511 -19.2428
ltibia 39.6047
lfoot -20.5275 -1.68696
ltoes -10.5157
240
root 0.135412 17.4397 -0.0235413 171.615 -4.55274 -180.598
lowerback 38.6658 -1.25243 8.70884
upperback 11.905 -2.75166 -2.0943
thorax -5.82352 -2.82287 -5.53707
lowerneck 2.25054 -0.52317 -3.05279
upperneck 12.5112 -1.29117 -1.81472
head 3.65975 -1.14865 -0.119145
rclavicle -6.13748e-015 1.05356e-014
rhumerus 155.524 -177.494 -267.799
rradius 15.9146
rwrist 14.8685
rhand -19.9802 14.8648
rfingers 7.12502
rthumb 6.35891 -15.0197
lclavicle -6.13748e-015 1.05356e-014
lhumerus -21.2366 16.8384 81.881
lradius 27.9435
lwrist -18.6674
lhand -14.964 -2.64426
lfingers 7.12502
lthumb 11.1995 27.0368
rfemur -6.33449 1.93767 19.1402
rtibia 31.6696
rfoot -19.8568 -9.32688
rtoes -11.1125
lfemur -10.2723 -9.90932 -19.2666
ltibia 39.041
lfoot -20.5489 -1.37038
ltoes -10.7517
241
root 0.155674 17.4555 -0.0718888 171.481 -4.51852 -180.592
lowerback 37.8403 -1.27384 8.45487
upperback 11.7166 -2.78532 -2.14701
thorax -5.78246 -2.78985 -5.48002
lowerneck 2.29995 -0.34103 -2.92829
upperneck 12.8125 -1.07217 -1.91368
head 3.75401 -1.05877 -0.17105
rclavicle 1.14922e-015 2.15433e-014
rhumerus 154.618 -177.994 -268.139
rradius 16.1835
rwrist 14.5216
rhand -19.9578 15.0624
rfingers 7.12502
rthumb 6.38058 -14.8215
lclavicle 1.14922e-015 2.15433e-014
lhumerus -21.2577 16.9029 81.8019
lradius 28.1862
lwrist -18.1264
lhand -14.9492 -2.656
lfingers 7.12502
lthumb 11.2137 27.0243
rfemur -5.65719 2.17295 19.2984
rtibia 31.0746
rfoot -19.8719 -9.5269
rtoes -10.9055
lfemur -9.60875 -10.1234 -19.2744
ltibia 38.5064
lfoot -20.5773 -1.11854
ltoes -10.8933
242
root 0.175785 17.4691 -0.119369 171.342 -4.48284 -180.59
lowerback 37.0381 -1.29445 8.17909
upperback 11.5161 -2.82014 -2.17964
thorax -5.75306 -2.7594 -5.38811
lowerneck 2.42056 -0.157321 -2.7656
upperneck 13.0964 -0.851771 -2.09007
head 3.82921 -0.970958 -0.254718
rclavicle 1.46604e-015 1.94809e-014
rhumerus 153.761 -178.368 -268.41
rradius 16.4309
rwrist 14.2992
rhand -19.7998 15.293
rfingers 7.12502
rthumb 6.53311 -14.5862
lclavicle 1.46604e-015 1.94809e-014
lhumerus -21.2695 16.9569 81.7702
lradius 28.4343
lwrist -17.5593
lhand -14.9373 -2.74162
lfingers 7.12502
lthumb 11.2252 26.9381
rfemur -4.9965 2.33909 19.4445
rtibia 30.51
rfoot -19.8801 -9.68512
rtoes -10.903
lfemur -8.95183 -10.3205 -19.2959
ltibia 37.9997
lfoot -20.6021 -0.857879
ltoes -11.1059
243
root 0.196688 17.4827 -0.167592 171.218 -4.43952 -180.59
lowerback 36.2398 -1.32623 7.93426
upperback 11.2897 -2.84928 -2.25012
thorax -5.74789 -2.72278 -5.3538
lowerneck 2.5948 0.0292345 -2.56059
upperneck 13.4029 -0.639732 -2.21077
head 3.90363 -0.885056 -0.327882
rclavicle 9.93923e-015 -2.13694e-014
rhumerus 152.87 -178.71 -268.733
rradius 16.7151
rwrist 14.0224
rhand -19.5574 15.5
rfingers 7.12502
rthumb 6.7671 -14.3719
lclavicle 9.93923e-015 -2.13694e-014
lhumerus -21.3613 16.9241 81.6959
lradius 28.7747
lwrist -16.9339
lhand -14.8826 -2.90102
lfingers 7.12502
lthumb 11.278 26.7758
rfemur -4.36877 2.59166 19.6094
rtibia 29.9696
rfoot -19.9142 -9.91987
rtoes -10.8227
lfemur -8.32943 -10.5052 -19.3078
ltibia 37.522
lfoot -20.6199 -0.624504
ltoes -11.2512
